<svg xmlns="http://www.w3.org/2000/svg" xmlns:xlink="http://www.w3.org/1999/xlink" viewBox="0 0 72 73"><path d="M 33.922 12.202 C 33.922 5.228 33.922 1.742 31.635 0.434 C 29.349 -0.873 26.301 0.87 20.204 4.357 L 15.796 6.877 C 9.7 10.364 6.651 12.108 6.651 14.723 C 6.651 17.338 9.7 19.081 15.796 22.568 L 20.204 25.089 C 26.301 28.575 29.349 30.319 31.635 29.011 C 33.922 27.704 33.922 24.217 33.922 17.243 Z" fill="rgb(0, 0, 0)"/><path d="M 13.718 26.134 C 7.621 22.647 4.573 20.904 2.286 22.211 C 0 23.519 0 27.006 0 33.979 L 0 39.021 C 0 45.994 0 49.481 2.286 50.789 C 4.573 52.096 7.621 50.353 13.718 46.866 L 18.125 44.345 C 24.222 40.858 27.271 39.115 27.271 36.5 C 27.271 33.885 24.222 32.141 18.125 28.655 Z" fill="rgb(0, 0, 0)"/><path d="M 15.796 50.432 C 9.7 53.919 6.651 55.662 6.651 58.277 C 6.651 60.892 9.7 62.636 15.796 66.123 L 20.204 68.643 C 26.301 72.13 29.349 73.873 31.635 72.566 C 33.922 71.258 33.922 67.771 33.922 60.798 L 33.922 55.757 C 33.922 48.783 33.922 45.296 31.635 43.989 C 29.349 42.681 26.301 44.425 20.204 47.911 Z" fill="rgb(0, 0, 0)"/><path d="M 38.078 60.798 C 38.078 67.771 38.078 71.258 40.365 72.566 C 42.651 73.873 45.699 72.13 51.796 68.643 L 56.204 66.123 C 62.301 62.636 65.349 60.892 65.349 58.277 C 65.349 55.662 62.301 53.919 56.204 50.432 L 51.796 47.911 C 45.699 44.425 42.651 42.681 40.365 43.989 C 38.078 45.296 38.078 48.783 38.078 55.757 Z" fill="rgb(0, 0, 0)"/><path d="M 58.282 46.866 C 64.379 50.353 67.427 52.096 69.714 50.789 C 72 49.481 72 45.994 72 39.021 L 72 33.979 C 72 27.006 72 23.519 69.714 22.211 C 67.427 20.904 64.379 22.647 58.282 26.134 L 53.875 28.655 C 47.778 32.141 44.73 33.885 44.73 36.5 C 44.73 39.115 47.778 40.858 53.875 44.345 Z" fill="rgb(0, 0, 0)"/><path d="M 56.204 22.568 C 62.301 19.081 65.349 17.338 65.349 14.723 C 65.349 12.108 62.301 10.364 56.204 6.877 L 51.796 4.357 C 45.699 0.87 42.651 -0.873 40.365 0.434 C 38.078 1.742 38.078 5.229 38.078 12.202 L 38.078 17.243 C 38.078 24.217 38.078 27.704 40.365 29.011 C 42.651 30.319 45.699 28.575 51.796 25.089 Z" fill="rgb(0, 0, 0)"/></svg>